# Blender v2.80 (sub 75) OBJ File: ''
# www.blender.org
mtllib RMIT.mtl
o path5126
v 0.032672 0.945068 -0.040023
v -0.061813 0.945068 -0.040023
v -0.061813 0.868320 -0.040023
v -0.219138 0.868320 -0.040023
v -0.219138 0.708295 -0.040023
v -0.337485 0.708295 -0.040023
v -0.337485 0.473290 -0.040023
v -0.219138 0.473290 -0.040023
v -0.219138 0.313234 -0.040023
v -0.061813 0.313234 -0.040023
v -0.061813 0.236710 -0.040023
v 0.021480 0.236710 -0.040023
v 0.069574 0.239914 -0.040023
v 0.116195 0.249253 -0.040023
v 0.160829 0.264318 -0.040023
v 0.202957 0.284699 -0.040023
v 0.242063 0.309987 -0.040023
v 0.277631 0.339772 -0.040023
v 0.309144 0.373645 -0.040023
v 0.336087 0.411197 -0.040023
v 0.357941 0.452019 -0.040023
v 0.374190 0.495700 -0.040023
v 0.384319 0.541832 -0.040023
v 0.387810 0.590005 -0.040023
v 0.384545 0.637929 -0.040023
v 0.375042 0.683972 -0.040023
v 0.359735 0.727698 -0.040023
v 0.339060 0.768671 -0.040023
v 0.313452 0.806456 -0.040023
v 0.283347 0.840616 -0.040023
v 0.249181 0.870716 -0.040023
v 0.211390 0.896321 -0.040023
v 0.170407 0.916994 -0.040023
v 0.126670 0.932301 -0.040023
v 0.080613 0.941804 -0.040023
vn 0.0000 -0.0000 1.0000
usemtl SVGMat.004
s off
f 3//1 1//1 2//1
f 3//1 35//1 1//1
f 3//1 34//1 35//1
f 3//1 33//1 34//1
f 3//1 32//1 33//1
f 3//1 31//1 32//1
f 3//1 30//1 31//1
f 5//1 3//1 4//1
f 5//1 30//1 3//1
f 5//1 29//1 30//1
f 5//1 28//1 29//1
f 5//1 27//1 28//1
f 5//1 26//1 27//1
f 7//1 5//1 6//1
f 7//1 26//1 5//1
f 7//1 25//1 26//1
f 7//1 24//1 25//1
f 7//1 23//1 24//1
f 7//1 22//1 23//1
f 7//1 8//1 22//1
f 8//1 21//1 22//1
f 9//1 21//1 8//1
f 9//1 20//1 21//1
f 9//1 19//1 20//1
f 9//1 18//1 19//1
f 9//1 10//1 18//1
f 10//1 17//1 18//1
f 11//1 17//1 10//1
f 11//1 16//1 17//1
f 11//1 15//1 16//1
f 11//1 14//1 15//1
f 11//1 13//1 14//1
f 11//1 12//1 13//1
